<?xml version="1.0" encoding="UTF-8" standalone="no"?>
<!-- Created with Inkscape (http://www.inkscape.org/) -->

<svg
   xmlns:dc="http://purl.org/dc/elements/1.1/"
   xmlns:cc="http://creativecommons.org/ns#"
   xmlns:rdf="http://www.w3.org/1999/02/22-rdf-syntax-ns#"
   xmlns:svg="http://www.w3.org/2000/svg"
   xmlns="http://www.w3.org/2000/svg"
   xmlns:sodipodi="http://sodipodi.sourceforge.net/DTD/sodipodi-0.dtd"
   xmlns:inkscape="http://www.inkscape.org/namespaces/inkscape"
   width="7in"
   height="7in"
   viewBox="0 0 630 630"
   id="svg2"
   version="1.1"
   inkscape:version="0.91 r13725"
   sodipodi:docname="game_board.svg">
  <defs
     id="defs4" />
  <sodipodi:namedview
     id="base"
     pagecolor="#ffffff"
     bordercolor="#666666"
     borderopacity="1.0"
     inkscape:pageopacity="0.0"
     inkscape:pageshadow="2"
     inkscape:zoom="0.7"
     inkscape:cx="529.70177"
     inkscape:cy="227.5748"
     inkscape:document-units="px"
     inkscape:current-layer="layer1"
     showgrid="false"
     inkscape:window-width="1536"
     inkscape:window-height="801"
     inkscape:window-x="-8"
     inkscape:window-y="-8"
     inkscape:window-maximized="1"
     units="in"
     height="8in" />
  <metadata
     id="metadata7">
    <rdf:RDF>
      <cc:Work
         rdf:about="">
        <dc:format>image/svg+xml</dc:format>
        <dc:type
           rdf:resource="http://purl.org/dc/dcmitype/StillImage" />
        <dc:title></dc:title>
      </cc:Work>
    </rdf:RDF>
  </metadata>
  <g
     inkscape:label="Layer 1"
     inkscape:groupmode="layer"
     id="layer1"
     transform="translate(0,-422.3622)">
    <path
       style="fill:#000000;fill-opacity:1;fill-rule:nonzero;stroke:none;stroke-width:1px;stroke-linecap:butt;stroke-linejoin:miter;stroke-opacity:1"
       id="path3358"
       d="m 32.099451,622.60983 c 6.707871,-1.08331 13.433635,-2.1012 20.223213,-2.70507 7.882885,-0.73579 15.807256,-0.61764 23.713704,-0.54284 14.94022,0.18573 29.852932,1.39165 44.755682,2.4031 20.84871,1.56876 41.65896,3.57259 62.48532,5.40045 15.2851,1.37287 30.63028,1.58789 45.92395,2.79023 7.20083,0.69278 14.4204,1.0481 21.65038,1.20248 7.02795,0.10862 14.0567,0.14436 21.08532,0.10519 7.15964,0.0416 14.31899,-0.0339 21.47862,-0.0302 6.95239,-0.005 13.90489,0.005 20.85734,0.0182 8.70927,0.0112 17.41807,0.0864 26.12741,0.0914 10.35261,-0.36179 20.6555,0.4092 30.97847,1.03605 10.48727,0.81934 21.02536,0.45926 31.50982,1.21512 7.80309,0.78193 15.62671,1.2601 23.46428,1.48535 8.50172,-0.096 16.95323,0.67186 25.42257,1.28158 9.80462,0.65238 19.6326,0.83496 29.45594,0.92465 9.03339,0.0192 18.06674,0.0396 27.10011,0.0525 8.44976,0.0341 16.89889,-0.0381 25.3481,-0.12408 5.98418,-0.052 11.96892,-0.0181 17.95329,-0.006 5.29528,-0.009 10.59043,-0.0469 15.88567,-0.0676 3.62716,-0.0502 7.25394,-0.0547 10.88148,-0.0147 4.77388,0.0268 9.54764,0.0391 14.32159,0.0279 4.85376,0.4081 9.52986,-0.39574 14.29528,-1.13187 4.83463,-0.55844 9.69794,-0.78377 14.56176,-0.83732 3.42958,0.28777 6.7085,-0.21183 10.05673,-0.84424 0,0 -29.91917,22.42104 -29.91917,22.42104 l 0,0 c -3.42372,0.37734 -6.85155,0.37535 -10.29321,0.45195 -4.78879,0.19512 -9.5848,0.4414 -14.32195,1.21679 -4.84927,0.674 -9.70131,0.81344 -14.5963,0.67748 -4.79955,-0.0113 -9.59894,9.9e-4 -14.39842,0.0279 -3.61401,0.0387 -7.22727,0.0371 -10.84085,-0.0148 -5.23308,-0.0209 -10.46609,-0.0588 -15.69921,-0.0677 -5.98033,0.0127 -11.96099,0.0467 -17.94115,-0.002 -8.34568,-0.0818 -16.69127,-0.14435 -25.03745,-0.10176 -9.04047,0.0183 -18.08115,0.0618 -27.12095,-0.0969 -9.86053,-0.16252 -19.7181,-0.41988 -29.55871,-1.10778 -8.54792,-0.57634 -17.0814,-0.93691 -25.64917,-0.98169 -7.76993,-0.39018 -15.52546,-0.983 -23.26859,-1.7405 -10.44092,-0.59496 -20.91347,-0.58071 -31.35043,-1.31691 -10.31186,-0.65053 -20.62063,-0.97096 -30.9551,-0.7734 -8.79302,0.005 -17.5855,0.0799 -26.37846,0.0912 -6.9708,0.0131 -13.94162,0.0237 -20.91235,0.0237 -7.14625,0.0101 -14.29235,-0.0529 -21.43856,9.9e-4 -7.08423,-0.0331 -14.16959,0.0533 -21.25246,-0.12066 -7.12622,-0.26523 -14.23335,-0.83059 -21.31062,-1.71553 -14.93649,-1.48554 -29.95488,-1.93087 -44.88357,-3.53554 -20.88319,-1.91011 -41.76341,-3.91394 -62.701591,-5.13167 -15.117327,-0.88863 -30.262667,-1.79941 -45.411244,-1.6239 -7.934277,0.15618 -15.879872,0.26506 -23.785395,1.02611 -6.906821,0.76721 -13.7323974,1.94927 -20.5553822,3.25836 0,0 30.0442632,-22.5958 30.0442632,-22.5958 z"
       inkscape:connector-curvature="0" />
    <path
       style="fill:#000000;fill-opacity:1;fill-rule:nonzero;stroke:none;stroke-width:1px;stroke-linecap:butt;stroke-linejoin:miter;stroke-opacity:1"
       id="path3360"
       d="m 30.717764,824.90309 c 12.353167,0.92044 24.741788,1.41299 37.103405,2.2523 20.448953,1.2274 40.880551,2.6268 61.350311,3.48098 19.57013,0.63982 39.15241,0.73655 58.73124,0.75933 16.28421,0.12057 32.56915,-0.009 48.85306,-0.12209 12.31162,-0.0608 24.62383,-0.0722 36.93577,-0.0844 13.60768,9.9e-4 27.21463,0.10754 40.82247,0.1336 15.27136,-0.0193 30.54275,0.0106 45.8141,-0.01 14.63596,0.0183 29.27227,-0.002 43.90811,-0.0648 10.99692,0.46441 21.97997,1.17588 32.98203,1.52122 7.53631,-0.085 14.99425,1.02748 22.49456,1.60102 6.47363,0.47108 12.96443,0.53178 19.45154,0.58914 5.92074,0.0866 11.85211,-0.23135 17.74562,0.39349 6.55437,0.84254 13.14758,1.2513 19.74851,1.47091 7.14641,1.01624 14.33619,1.58995 21.54372,1.91189 8.01643,0.54346 16.003,1.44916 24.038,1.87865 7.49289,0.35036 14.99462,0.38783 22.49411,0.38031 5.92771,0.007 11.85534,-0.0144 17.78294,-0.0509 3.12923,-0.47373 5.98498,-1.74278 9.14349,-1.96757 2.48292,-0.45714 4.95599,-1.02149 7.43038,-1.68238 2.59181,-0.45815 5.1895,-0.46923 7.81369,-0.45773 1.2129,-0.31908 2.81759,0.37163 4.01533,-0.0234 2.14205,-0.7066 -0.7924,-0.74884 1.63216,-0.52915 0,0 -30.2912,22.55441 -30.2912,22.55441 l 0,0 c -1.6753,0.74221 -3.91202,-0.311 -5.71433,0.17469 -2.4846,0.1402 -4.96191,0.44761 -7.37426,1.0736 -2.55063,0.49501 -5.02678,1.27311 -7.62918,1.46627 -3.0294,0.71952 -6.0441,1.49664 -9.20171,1.31992 -5.89109,-0.0246 -11.78217,-0.0237 -17.67318,-0.0627 -7.46328,-0.1029 -14.9302,-0.23934 -22.38143,-0.69982 -8.07753,-0.51479 -16.12883,-1.36519 -24.21471,-1.73984 -7.20373,-0.48519 -14.37608,-1.25399 -21.57046,-1.83327 -6.60835,-0.34787 -13.19675,-0.9097 -19.78035,-1.57713 -5.90468,-0.20827 -11.81183,-0.0136 -17.71867,-0.14708 -6.46991,-0.11276 -12.93836,-0.40739 -19.38771,-0.94235 -7.44229,-0.62923 -14.86853,-1.40835 -22.34282,-1.54642 -10.79377,-0.62417 -21.57843,-1.46213 -32.3882,-1.75015 -14.57638,-0.0634 -29.15322,-0.083 -43.72971,-0.0649 -15.26211,-0.0207 -30.52424,0.009 -45.78635,-0.0102 -13.73122,0.0261 -27.46159,0.13145 -41.19266,0.13608 -12.24685,-0.008 -24.49389,-0.0129 -36.7405,-0.0552 -16.16448,-0.0926 -32.32926,-0.18744 -48.49407,-0.16317 -19.41439,-0.1665 -38.82842,-0.45263 -58.2281,-1.27636 -20.679565,-0.78833 -41.334771,-2.05372 -62.003044,-3.08675 -12.756669,-0.59406 -25.542282,-1.30616 -38.31240278,-1.12104 0,0 30.32050078,-22.02913 30.32050078,-22.02913 z"
       inkscape:connector-curvature="0" />
    <path
       style="fill:#000000;fill-opacity:1;fill-rule:nonzero;stroke:none;stroke-width:1px;stroke-linecap:butt;stroke-linejoin:miter;stroke-opacity:1"
       id="path3362"
       d="m 236.23913,423.57623 c 0.5109,9.58536 1.23436,19.15131 2.06109,28.71394 0.71148,8.91293 1.24171,17.83531 1.57471,26.76987 0.21591,5.69939 0.14556,11.40279 0.12927,17.10431 -0.0108,6.76847 -0.0976,13.53649 -0.0905,20.30499 0.0687,5.86462 0.0764,11.72937 0.11228,17.59419 0.0176,5.4888 -0.0328,10.97741 -0.0327,16.46615 -0.0403,7.42316 -0.23363,14.84995 0.04,22.26937 0.43557,9.10983 1.45101,18.16675 2.34325,27.23819 0.93138,9.3974 1.17734,18.84525 1.37581,28.28146 0.13836,8.24417 0.1318,16.48981 0.13131,24.73486 0.13981,10.28199 -0.3061,20.52192 -1.26903,30.75719 -1.21246,12.57034 -2.5524,25.09754 -4.45335,37.58413 -1.91411,13.55197 -4.33876,27.02521 -6.31785,40.56711 -1.14353,9.1584 -1.83594,18.36472 -2.73414,27.55026 -1.10474,8.33862 -2.41589,16.64614 -3.60331,24.97256 -1.16382,8.74149 -2.29092,17.48671 -3.51931,26.21944 -1.09802,8.68725 -2.0532,17.39315 -3.31938,26.05895 -0.93119,6.69817 -2.82213,13.18963 -3.8051,19.87816 -0.62029,6.55031 -1.5803,13.06217 -2.75828,19.53366 -1.20731,5.88082 -1.46607,11.88498 -2.36298,17.80938 -0.78091,4.31623 -1.23762,8.67224 -1.47002,13.04915 -0.19016,4.45666 -0.17677,8.9175 -0.21676,13.37693 0.008,5.14133 0.0225,10.28244 -0.01,15.42374 -0.0558,5.8859 -0.0354,11.77201 0.0101,17.65792 -0.0838,4.35971 0.87155,8.64577 1.41186,12.95447 0.30825,4.38519 0.72052,8.73139 1.39154,13.07669 0.41632,4.0147 1.39206,7.9436 2.21716,11.8879 0.30222,2.266 0.55678,4.5379 0.85675,6.806 -0.0941,-0.29 -0.18819,-0.58 -0.28229,-0.8699 0,0 -32.22785,19.8442 -32.22785,19.8442 l 0,0 c -0.30452,-0.4916 -0.60903,-0.9832 -0.91354,-1.4748 -0.19498,-2.1969 -0.73752,-4.4307 -0.52079,-6.6118 -0.77541,-4.0368 -1.70181,-8.0258 -2.1589,-12.1151 -0.66579,-4.3844 -1.45063,-8.718 -1.51061,-13.1677 -0.47626,-4.4734 -1.56511,-8.896 -1.48346,-13.4034 0.0448,-5.88749 0.0654,-11.77541 0.004,-17.66299 -0.0383,-5.13306 -0.0348,-10.26604 -0.0395,-15.39921 -0.0442,-4.49145 -0.0797,-8.9853 0.0307,-13.47584 0.17522,-4.53458 0.52702,-9.06373 1.41368,-13.52292 1.09541,-5.95356 1.43025,-11.96929 2.44675,-17.93876 1.26132,-6.39555 2.32853,-12.84903 2.87582,-19.34259 0.75014,-6.83592 2.59769,-13.35506 3.96748,-20.07255 1.44003,-8.63873 2.37028,-17.35718 3.38372,-26.05354 1.33425,-8.69604 2.39775,-17.4303 3.41025,-26.16855 1.26404,-8.27516 2.5869,-16.53346 3.63834,-24.83961 1.14701,-9.2962 1.89055,-18.61908 3.10283,-27.90467 2.18574,-13.59273 4.81412,-27.11199 6.74205,-40.74674 1.73575,-12.37592 2.74609,-24.80999 4.09783,-37.22796 1.08632,-10.04689 1.32156,-20.1344 1.04894,-30.23559 0.0122,-8.24354 0.0388,-16.48719 -0.009,-24.73066 -0.0906,-9.35992 -0.27153,-18.72518 -1.15434,-28.05068 -0.90752,-9.10355 -2.03496,-18.17454 -2.53412,-27.31618 -0.55384,-7.42177 -0.28991,-14.86045 -0.43811,-22.29832 7e-5,-5.47762 -0.0505,-10.95513 -0.0329,-16.43281 0.036,-5.90413 0.0443,-11.80819 0.11641,-17.7121 0.0118,-6.74389 -0.0675,-13.4874 -0.0598,-20.23132 -0.005,-5.6918 -0.0393,-11.38337 -0.0107,-17.07537 -0.0328,-8.94863 -0.25154,-17.90222 -0.95544,-26.82602 -0.76939,-9.39754 -1.65441,-18.79724 -2.81628,-28.15054 0,0 33.17586,-17.42695 33.17586,-17.42695 z"
       inkscape:connector-curvature="0" />
    <path
       style="fill:#000000;fill-opacity:1;fill-rule:nonzero;stroke:none;stroke-width:1px;stroke-linecap:butt;stroke-linejoin:miter;stroke-opacity:1"
       id="path3366"
       d="m 426.14711,433.06041 c 1.61139,7.78754 2.64348,15.68075 3.79919,23.54604 1.14193,8.53662 1.41503,17.14119 1.65513,25.7385 0.51411,7.98883 -0.57061,15.93332 -1.14996,23.88505 -0.38997,9.086 -0.79695,18.145 -1.60826,27.20457 -0.50367,6.9487 -1.67307,13.82186 -2.3992,20.74914 -1.05272,6.75815 -1.87844,13.52947 -2.29334,20.3571 -0.2704,6.12402 -0.26035,12.23037 -0.90309,18.33121 -0.83493,7.10284 -2.10144,14.13173 -2.79942,21.2542 -0.55856,6.93822 -0.65888,13.90612 -0.75611,20.86347 -0.12636,8.55275 -0.0927,17.10524 -0.0632,25.65842 0.0204,7.51844 0.11718,15.03686 0.075,22.55531 -0.0443,9.67644 -0.18852,19.35176 -0.23664,29.02821 -0.39893,11.94338 -1.1411,23.86675 -2.17053,35.77081 -0.99482,11.68861 -2.1086,23.37333 -3.54626,35.0171 -1.15111,8.52281 -1.69046,17.10058 -1.9506,25.69084 0.0575,8.84066 -1.22993,17.5831 -2.41438,26.31765 -0.68383,6.76587 -1.43882,13.50809 -2.38297,20.24251 -0.68564,7.87264 -1.4173,15.73958 -2.12802,23.61187 -1.1351,8.24399 -2.20899,16.48368 -2.75361,24.78986 -0.25702,7.6846 -1.20292,15.32028 -1.75039,22.98563 -0.31113,5.71012 -0.69746,11.43606 -0.39717,17.15214 0.36397,5.9936 1.38134,11.88853 2.36507,17.79921 0.68174,5.51207 2.3125,10.83431 3.5732,16.22737 1.14464,5.88239 2.85407,11.6359 4.45982,17.40689 1.55009,4.98969 3.15336,9.95759 4.68575,14.95389 1.62193,3.222 1.31046,7.0051 2.33334,10.3404 0.65394,1.3026 1.75512,2.2426 2.57824,3.4959 -0.0346,-0.1575 -0.0692,-0.3149 -0.10381,-0.4725 0,0 -31.974,20.2777 -31.974,20.2777 l 0,0 c -0.23883,-0.3067 -0.47766,-0.6136 -0.71648,-0.9204 -0.46055,-1.5258 -2.62178,-2.3564 -2.73436,-4.1296 -1.27037,-3.3087 -0.42715,-7.2505 -2.16635,-10.6201 -1.58817,-5.0223 -2.90301,-10.1394 -4.53513,-15.1506 -1.66306,-5.8102 -3.47607,-11.6068 -4.60836,-17.54259 -1.2159,-5.48108 -3.11333,-10.81534 -3.6778,-16.42882 -0.97927,-6.02129 -2.05132,-12.01057 -2.50395,-18.10492 -0.54021,-5.87924 -0.22354,-11.79731 0.18784,-17.67967 0.66586,-7.67943 1.75907,-15.32739 2.01635,-23.03374 0.43076,-8.3568 1.31502,-16.64588 2.69224,-24.90361 0.7641,-7.86588 1.3703,-15.73536 1.91,-23.61887 0.70783,-6.80975 1.86936,-13.55885 2.52876,-20.37815 1.20217,-8.60824 2.74649,-17.21791 2.56671,-25.94689 0.23369,-8.74799 0.66038,-17.49338 2.02416,-26.15123 1.63767,-11.6141 2.93522,-23.26799 3.82693,-34.96595 0.98651,-11.80372 1.77113,-23.6216 2.23874,-35.45881 -0.0479,-9.59561 -0.19196,-19.19005 -0.23801,-28.78564 -0.0451,-7.53925 0.0476,-15.07857 0.0537,-22.61788 0.0142,-8.54188 0.0138,-17.08285 -0.0622,-25.62444 -0.01,-7.05337 0.0489,-14.10471 0.61051,-21.14137 0.60375,-7.12709 1.70963,-14.16695 2.67182,-21.24697 0.63376,-6.05854 0.80455,-12.10814 0.97458,-18.19886 0.46247,-6.84469 1.00636,-13.69224 2.20911,-20.45437 0.63759,-6.98031 1.98294,-13.86281 2.62918,-20.83897 0.85405,-9.04865 1.69633,-18.07852 1.77611,-27.17871 0.45118,-7.84386 1.30869,-15.66865 1.1346,-23.5322 -0.0752,-8.47855 -0.32666,-16.97291 -1.35109,-25.39749 -1.00501,-7.64106 -2.13353,-15.32433 -4.1462,-22.76965 0,0 32.94476,-17.95799 32.94476,-17.95799 z"
       inkscape:connector-curvature="0" />
  </g>
</svg>
