<?xml version="1.0" encoding="UTF-8" standalone="no"?>
<!-- Created with Inkscape (http://www.inkscape.org/) -->

<svg
   xmlns:dc="http://purl.org/dc/elements/1.1/"
   xmlns:cc="http://creativecommons.org/ns#"
   xmlns:rdf="http://www.w3.org/1999/02/22-rdf-syntax-ns#"
   xmlns:svg="http://www.w3.org/2000/svg"
   xmlns="http://www.w3.org/2000/svg"
   xmlns:sodipodi="http://sodipodi.sourceforge.net/DTD/sodipodi-0.dtd"
   xmlns:inkscape="http://www.inkscape.org/namespaces/inkscape"
   width="6.5999999in"
   height="6.5999999in"
   viewBox="0 0 593.99999 593.99999"
   id="svg2"
   version="1.1"
   inkscape:version="0.91 r13725"
   sodipodi:docname="game_board.svg">
  <defs
     id="defs4" />
  <sodipodi:namedview
     id="base"
     pagecolor="#ffffff"
     bordercolor="#666666"
     borderopacity="1.0"
     inkscape:pageopacity="0.0"
     inkscape:pageshadow="2"
     inkscape:zoom="0.7"
     inkscape:cx="396.13034"
     inkscape:cy="227.5748"
     inkscape:document-units="px"
     inkscape:current-layer="layer1"
     showgrid="false"
     inkscape:window-width="1536"
     inkscape:window-height="801"
     inkscape:window-x="-8"
     inkscape:window-y="-8"
     inkscape:window-maximized="1"
     units="in"
     height="8in" />
  <metadata
     id="metadata7">
    <rdf:RDF>
      <cc:Work
         rdf:about="">
        <dc:format>image/svg+xml</dc:format>
        <dc:type
           rdf:resource="http://purl.org/dc/dcmitype/StillImage" />
        <dc:title></dc:title>
      </cc:Work>
    </rdf:RDF>
  </metadata>
  <g
     inkscape:label="Layer 1"
     inkscape:groupmode="layer"
     id="layer1"
     transform="translate(0,-458.3622)">
    <path
       style="fill:#000000;fill-opacity:1;fill-rule:nonzero;stroke:none;stroke-width:1px;stroke-linecap:butt;stroke-linejoin:miter;stroke-opacity:1"
       id="path3358"
       d="m 32.850526,649.10173 c 6.262248,-1.01134 12.5412,-1.96161 18.879725,-2.52537 7.359203,-0.6869 14.757135,-0.5766 22.138335,-0.50678 13.947698,0.17339 27.869714,1.29921 41.782434,2.24346 19.46367,1.46455 38.89143,3.33525 58.33424,5.04169 14.26967,1.28167 28.59541,1.48239 42.87308,2.60485 6.72247,0.64678 13.46241,0.97848 20.21209,1.1226 6.56106,0.10145 13.12287,0.13478 19.68455,0.0982 6.68401,0.0389 13.36775,-0.0316 20.05174,-0.0282 6.49052,-0.004 12.98115,0.005 19.47172,0.017 8.13069,0.0105 16.26094,0.0807 24.3917,0.0853 9.66485,-0.33776 19.2833,0.38201 28.92047,0.96723 9.79058,0.7649 19.62859,0.42874 29.41654,1.13439 7.28471,0.72997 14.58858,1.17638 21.90548,1.38667 7.93691,-0.0896 15.82698,0.62722 23.73367,1.19644 9.15328,0.60904 18.32835,0.77949 27.4991,0.86322 8.43327,0.018 16.86652,0.037 25.29977,0.049 7.88842,0.0318 15.77624,-0.0356 23.66414,-0.11584 5.58665,-0.0486 11.1738,-0.0169 16.76061,-0.005 4.9435,-0.009 9.88688,-0.0438 14.83034,-0.0631 3.38621,-0.0468 6.77205,-0.0511 10.1586,-0.0137 4.45673,0.025 8.91336,0.0365 13.37016,0.0261 4.5313,0.38099 8.89676,-0.36945 13.3456,-1.05668 4.51345,-0.52135 9.05368,-0.7317 13.59438,-0.7817 3.20175,0.26866 6.26284,-0.19774 9.38863,-0.78815 0,0 -27.93155,20.93155 -27.93155,20.93155 l 0,0 c -3.19628,0.35226 -6.39638,0.3504 -9.6094,0.42192 -4.47065,0.18217 -8.94805,0.41208 -13.3705,1.13596 -4.52713,0.62922 -9.05683,0.7594 -13.62662,0.63247 -4.48071,-0.0106 -8.96126,9.3e-4 -13.4419,0.0261 -3.37391,0.0361 -6.74714,0.0347 -10.12067,-0.0138 -4.88542,-0.0195 -9.77078,-0.0549 -14.65626,-0.0632 -5.58303,0.0118 -11.16638,0.0436 -16.74926,-0.002 -7.79125,-0.0764 -15.58243,-0.13476 -23.37414,-0.095 -8.43988,0.0171 -16.87997,0.0577 -25.31923,-0.0905 -9.20547,-0.15172 -18.40817,-0.39198 -27.59504,-1.03418 -7.98005,-0.53806 -15.94663,-0.87468 -23.94522,-0.91647 -7.25375,-0.36427 -14.49405,-0.9177 -21.7228,-1.62488 -9.74729,-0.55544 -19.52412,-0.54214 -29.26773,-1.22943 -9.62681,-0.60731 -19.25073,-0.90646 -28.89866,-0.72202 -8.20888,0.005 -16.41724,0.0747 -24.62606,0.0851 -6.50771,0.0123 -13.01543,0.0221 -19.52307,0.0221 -6.67152,0.01 -13.34287,-0.0494 -20.01435,9.3e-4 -6.6136,-0.031 -13.22825,0.0498 -19.84059,-0.11265 -6.65279,-0.2476 -13.28778,-0.77541 -19.8949,-1.60155 -13.94421,-1.38686 -27.96488,-1.80261 -41.90181,-3.30067 -19.49587,-1.78322 -38.98896,-3.65392 -58.536146,-4.79076 -14.113039,-0.82959 -28.25223,-1.67987 -42.394443,-1.51602 -7.407181,0.14582 -14.824927,0.24745 -22.205263,0.95794 -6.44798,0.71624 -12.820114,1.81979 -19.189828,3.04191 0,0 28.048336,-21.09471 28.048336,-21.09471 z"
       inkscape:connector-curvature="0" />
    <path
       style="fill:#000000;fill-opacity:1;fill-rule:nonzero;stroke:none;stroke-width:1px;stroke-linecap:butt;stroke-linejoin:miter;stroke-opacity:1"
       id="path3360"
       d="m 31.560628,837.95606 c 11.53251,0.8593 23.09812,1.31912 34.638519,2.10267 19.090469,1.14587 38.164733,2.4523 57.274633,3.24973 18.27003,0.59732 36.5514,0.68762 54.82955,0.70889 15.2024,0.11256 30.40549,-0.009 45.60761,-0.11397 11.49373,-0.0568 22.988,-0.0674 34.48201,-0.0788 12.70369,9.3e-4 25.40669,0.10039 38.11052,0.12474 14.25684,-0.0181 28.5137,0.0104 42.77054,-0.01 13.66365,0.017 27.32763,-0.002 40.99116,-0.0606 10.26637,0.43356 20.51978,1.09776 30.79094,1.42016 7.03566,-0.0794 13.99815,0.95922 21.00019,1.49466 6.04356,0.43979 12.10316,0.49645 18.15931,0.55 5.52741,0.0809 11.06474,-0.21598 16.56673,0.36736 6.11894,0.78656 12.27415,1.16816 18.43656,1.37318 6.67165,0.94873 13.38379,1.48433 20.11251,1.78488 7.48387,0.50736 14.93988,1.35289 22.44108,1.75385 6.99512,0.32709 13.99848,0.36206 20.99976,0.35504 5.53391,0.006 11.06776,-0.0133 16.60158,-0.0475 2.92134,-0.44226 5.58737,-1.627 8.53605,-1.83686 2.31798,-0.42677 4.62675,-0.95362 6.93677,-1.57061 2.41963,-0.42772 4.84473,-0.43806 7.29459,-0.42733 1.13233,-0.29788 2.63041,0.34695 3.74859,-0.0218 1.99974,-0.65965 -0.73976,-0.69909 1.52372,-0.49398 0,0 -28.27886,21.05604 -28.27886,21.05604 l 0,0 c -1.564,0.69291 -3.65213,-0.29033 -5.33471,0.16308 -2.31954,0.13089 -4.63227,0.41787 -6.88436,1.00229 -2.38119,0.46212 -4.69284,1.18853 -7.12236,1.36886 -2.82814,0.67171 -5.64257,1.39721 -8.59042,1.23223 -5.49973,-0.023 -10.99944,-0.0221 -16.49909,-0.0585 -6.96747,-0.096 -13.93834,-0.22345 -20.89456,-0.65334 -7.54093,-0.48058 -15.05735,-1.27448 -22.60606,-1.62425 -6.72517,-0.45297 -13.42104,-1.17068 -20.13748,-1.71149 -6.16934,-0.32475 -12.32006,-0.84925 -18.46628,-1.47235 -5.51242,-0.19444 -11.02714,-0.0127 -16.54156,-0.1373 -6.04011,-0.10528 -12.07884,-0.38033 -18.09974,-0.87975 -6.94787,-0.58744 -13.88077,-1.3148 -20.85853,-1.4437 -10.0767,-0.5827 -20.1449,-1.36498 -30.23656,-1.63387 -13.60801,-0.0592 -27.21647,-0.0774 -40.82461,-0.0607 -14.2482,-0.0193 -28.49642,0.009 -42.74463,-0.01 -12.81901,0.0244 -25.63723,0.12271 -38.45611,0.12703 -11.43325,-0.007 -22.86669,-0.0121 -34.29972,-0.0515 -15.09062,-0.0865 -30.18153,-0.17498 -45.27247,-0.15233 -18.12463,-0.15545 -36.24893,-0.42257 -54.359834,-1.19157 -19.305761,-0.73595 -38.588782,-1.91729 -57.884001,-2.88169 -11.909207,-0.55459 -23.845434,-1.21938 -35.7671989,-1.04657 0,0 28.3062219,-20.56567 28.3062219,-20.56567 z"
       inkscape:connector-curvature="0" />
    <path
       style="fill:#000000;fill-opacity:1;fill-rule:nonzero;stroke:none;stroke-width:1px;stroke-linecap:butt;stroke-linejoin:miter;stroke-opacity:1"
       id="path3362"
       d="m 223.42861,463.29051 c 0.47696,8.94858 1.15236,17.87904 1.92417,26.80639 0.66421,8.32082 1.15921,16.65046 1.4701,24.99147 0.20157,5.32077 0.13589,10.64526 0.12068,15.96802 -0.0104,6.31881 -0.0911,12.63722 -0.0845,18.95607 0.0642,5.47502 0.0714,10.95015 0.10482,16.42536 0.0165,5.12416 -0.0307,10.24815 -0.0306,15.37226 -0.0376,6.93 -0.21811,13.86342 0.0374,20.78994 0.40663,8.50464 1.3546,16.95988 2.18757,25.42868 0.86951,8.77311 1.09913,17.59331 1.28442,26.40264 0.12917,7.69649 0.12304,15.39435 0.12258,23.09165 0.13053,9.59894 -0.28576,19.15859 -1.18473,28.71391 -1.13191,11.73525 -2.38283,23.43023 -4.15749,35.08731 -1.78695,12.65167 -4.05053,25.22985 -5.89814,37.87211 -1.06755,8.54999 -1.71397,17.1447 -2.5525,25.72002 -1.03135,7.78466 -2.25539,15.54029 -3.36392,23.31356 -1.08652,8.16076 -2.13873,16.32501 -3.28553,24.47761 -1.02507,8.11013 -1.9168,16.23766 -3.09886,24.32777 -0.86932,6.25319 -2.63465,12.31341 -3.55232,18.5576 -0.57907,6.11515 -1.47531,12.19441 -2.57504,18.23598 -1.12711,5.49014 -1.36867,11.09543 -2.20599,16.62626 -0.72904,4.02948 -1.15541,8.09611 -1.37237,12.18225 -0.17752,4.16058 -0.16502,8.32508 -0.20236,12.48826 0.007,4.79978 0.0209,9.59935 -0.01,14.3991 -0.0521,5.49488 -0.033,10.98996 0.01,16.48485 -0.0783,4.07008 0.81365,8.07142 1.31807,12.09392 0.28778,4.0938 0.67266,8.1513 1.2991,12.208 0.38866,3.7479 1.29958,7.4158 2.06986,11.098 0.28214,2.1155 0.51979,4.2365 0.79984,6.3539 -0.0878,-0.2708 -0.1757,-0.5415 -0.26354,-0.8121 0,0 -30.08686,18.5259 -30.08686,18.5259 l 0,0 c -0.28429,-0.459 -0.56858,-0.9179 -0.85285,-1.3767 -0.18202,-2.0511 -0.68852,-4.1365 -0.48619,-6.1726 -0.7239,-3.7687 -1.58876,-7.4928 -2.01548,-11.3103 -0.62157,-4.0933 -1.35427,-8.1389 -1.41026,-12.2929 -0.44462,-4.1762 -1.46114,-8.3052 -1.38491,-12.513 0.0419,-5.4964 0.0611,-10.99317 0.004,-16.48962 -0.0357,-4.79207 -0.0325,-9.58404 -0.0368,-14.37619 -0.0412,-4.19308 -0.0745,-8.38839 0.0286,-12.58061 0.16356,-4.23334 0.49201,-8.4616 1.31976,-12.62456 1.02263,-5.55804 1.33523,-11.17413 2.28421,-16.74704 1.17752,-5.97067 2.17383,-11.99542 2.68477,-18.0576 0.7003,-6.38178 2.42511,-12.46785 3.70391,-18.73907 1.34436,-8.06483 2.2128,-16.2041 3.15892,-24.32273 1.24561,-8.11833 2.23845,-16.27236 3.1837,-24.4301 1.18007,-7.72541 2.41504,-15.43509 3.39663,-23.18943 1.07082,-8.67864 1.76496,-17.38217 2.89671,-26.05089 2.04052,-12.68972 4.4943,-25.31086 6.29415,-38.03981 1.62044,-11.55375 2.56366,-23.1618 3.8256,-34.7548 1.01416,-9.37945 1.23377,-18.79682 0.97925,-28.22695 0.0114,-7.69591 0.0362,-15.39191 -0.009,-23.08773 -0.0846,-8.73812 -0.25349,-17.48121 -1.07766,-26.18719 -0.84722,-8.49879 -1.89976,-16.96716 -2.36576,-25.50149 -0.51705,-6.92873 -0.27065,-13.87324 -0.40901,-20.81698 6e-5,-5.11373 -0.0471,-10.22735 -0.0308,-15.34114 0.0336,-5.51189 0.0413,-11.02373 0.10868,-16.53543 0.011,-6.29587 -0.063,-12.59139 -0.0559,-18.88729 -0.005,-5.31368 -0.0366,-10.62715 -0.0104,-15.94101 -0.0307,-8.35414 -0.23483,-16.71292 -0.89198,-25.04389 -0.71827,-8.77323 -1.5445,-17.54848 -2.62918,-26.28041 0,0 30.97188,-16.26923 30.97188,-16.26923 z"
       inkscape:connector-curvature="0" />
    <path
       style="fill:#000000;fill-opacity:1;fill-rule:nonzero;stroke:none;stroke-width:1px;stroke-linecap:butt;stroke-linejoin:miter;stroke-opacity:1"
       id="path3366"
       d="m 400.72045,472.14464 c 1.50434,7.27018 2.46786,14.63902 3.5468,21.9818 1.06606,7.96951 1.32103,16.00245 1.54518,24.02861 0.47996,7.45811 -0.53271,14.87483 -1.07356,22.29831 -0.36407,8.48237 -0.74402,16.93956 -1.50143,25.39728 -0.4702,6.48708 -1.56192,12.90364 -2.23981,19.37071 -0.98279,6.30919 -1.75365,12.63067 -2.14099,19.00472 -0.25244,5.71719 -0.24306,11.41788 -0.84309,17.11341 -0.77946,6.63099 -1.96184,13.19292 -2.61345,19.84223 -0.52145,6.4773 -0.61511,12.9823 -0.70588,19.47745 -0.11797,7.98457 -0.0866,15.96889 -0.059,23.95386 0.019,7.01896 0.1094,14.03791 0.07,21.05689 -0.0413,9.03361 -0.176,18.06617 -0.22092,27.09978 -0.37243,11.14995 -1.0653,22.28122 -2.02634,33.39445 -0.92873,10.9121 -1.96852,21.82057 -3.31068,32.69082 -1.07463,7.95661 -1.57815,15.96454 -1.82101,23.98412 0.0537,8.25335 -1.14822,16.41501 -2.25398,24.56929 -0.6384,6.3164 -1.34323,12.61071 -2.22467,18.89775 -0.64009,7.34963 -1.32313,14.69395 -1.98664,22.04326 -1.05969,7.69632 -2.06224,15.38862 -2.57069,23.143 -0.23994,7.17409 -1.123,14.30251 -1.63411,21.45862 -0.29046,5.33078 -0.65112,10.67633 -0.37077,16.01269 0.33979,5.59542 1.28956,11.09872 2.20794,16.61675 0.63645,5.14588 2.15888,10.11455 3.33583,15.14934 1.0686,5.49159 2.66447,10.86289 4.16353,16.25052 1.44712,4.6581 2.94388,9.296 4.37447,13.9604 1.51418,3.0079 1.2234,6.5397 2.17834,9.6535 0.61048,1.2161 1.63851,2.0936 2.40695,3.2636 -0.0323,-0.147 -0.0646,-0.2939 -0.0969,-0.441 0,0 -29.84988,18.9305 -29.84988,18.9305 l 0,0 c -0.22297,-0.2864 -0.44593,-0.5728 -0.66889,-0.8592 -0.42995,-1.4245 -2.4476,-2.1999 -2.55271,-3.8554 -1.18597,-3.0888 -0.39877,-6.7688 -2.02243,-9.9145 -1.48267,-4.6886 -2.71015,-9.4658 -4.23385,-14.1441 -1.55257,-5.4242 -3.24514,-10.8357 -4.30221,-16.3771 -1.13513,-5.117 -2.90651,-10.09689 -3.43348,-15.33745 -0.9142,-5.62128 -1.91504,-11.21267 -2.33759,-16.90215 -0.50433,-5.48867 -0.2087,-11.0136 0.17535,-16.50516 0.62163,-7.16928 1.64222,-14.30915 1.8824,-21.50355 0.40215,-7.80163 1.22766,-15.54004 2.51339,-23.24919 0.71333,-7.34332 1.27927,-14.69001 1.78311,-22.0498 0.66081,-6.35736 1.74517,-12.65809 2.36078,-19.02436 1.12229,-8.03639 2.56403,-16.07408 2.39619,-24.22317 0.21816,-8.16684 0.6165,-16.33125 1.88968,-24.41394 1.52888,-10.84254 2.74023,-21.72222 3.5727,-32.64305 0.92097,-11.01956 1.65347,-22.05235 2.09001,-33.10318 -0.0448,-8.95814 -0.17921,-17.91519 -0.2222,-26.87333 -0.0421,-7.03839 0.0444,-14.07686 0.0502,-21.11531 0.0132,-7.97441 0.0129,-15.94798 -0.058,-23.92213 -0.01,-6.58479 0.0457,-13.16769 0.56995,-19.73689 0.56365,-6.65361 1.59605,-13.22579 2.49433,-19.83546 0.59166,-5.65607 0.75109,-11.30377 0.90984,-16.98987 0.43173,-6.38998 0.9395,-12.78262 2.06234,-19.09552 0.59523,-6.51659 1.85121,-12.94186 2.45452,-19.45458 0.79732,-8.44752 1.58363,-16.8775 1.65812,-25.37315 0.4212,-7.32277 1.22175,-14.62773 1.05922,-21.96889 -0.0702,-7.91529 -0.30496,-15.84534 -1.26133,-23.71026 -0.93825,-7.13344 -1.99179,-14.30628 -3.87075,-21.257 0,0 30.75614,-16.76497 30.75614,-16.76497 z"
       inkscape:connector-curvature="0" />
  </g>
</svg>
